<?xml version="1.0" encoding="UTF-8"?>
<svg width="282px" height="100px" viewBox="0 0 282 100" version="1.1" xmlns="http://www.w3.org/2000/svg" xmlns:xlink="http://www.w3.org/1999/xlink">
    <title>DF39B6CA-A608-4C7A-9D0E-6DDFF89B493E</title>
    <g id="Pigonnet" stroke="none" stroke-width="1" fill="none" fill-rule="evenodd">
        <g id="D_Pigonnet_Styleguides" transform="translate(-82.000000, -332.000000)" fill="#587F9F">
            <g id="Logo_hotel" transform="translate(82.000000, 332.000000)">
                <path d="M79.4451674,90.8882895 L78.0358073,90.8882895 L74.2331288,99.8469816 L75.7894775,99.8469816 L76.6800547,97.6993865 L80.769793,97.6993865 L81.6448068,99.8469816 L83.2530337,99.8469816 L79.4451674,90.8882895 Z M80.2129661,96.3168833 L77.2351524,96.3168833 L78.7171421,92.7565371 L80.2129661,96.3168833 Z M86.0043122,99.8469816 L87.5226168,99.8469816 L87.5226168,90.9487851 L86.0043122,90.9487851 L86.0043122,99.8469816 Z M98.3876594,99.8469816 L95.249023,95.2991331 L98.2631515,90.9505644 L96.5200411,90.9505644 L94.3567165,94.1408196 L92.2089554,90.9505644 L90.4174252,90.9505644 L93.4436586,95.3222638 L90.2929173,99.8469816 L92.0360278,99.8469816 L94.3221309,96.4787981 L96.5943999,99.8469816 L98.3876594,99.8469816 Z M100.127311,96.7083256 L103.784731,96.7083256 L103.784731,95.197714 L100.127311,95.197714 L100.127311,96.7083256 Z M113.522285,90.9505644 L107.110129,90.9505644 L107.110129,99.8469816 L113.58281,99.8469816 L113.58281,98.4520234 L108.628433,98.4520234 L108.628433,96.0606664 L112.965458,96.0606664 L112.965458,94.6621497 L108.628433,94.6621497 L108.628433,92.3490812 L113.522285,92.3490812 L113.522285,90.9505644 Z M122.784289,97.1015473 L118.151558,90.9505644 L116.743927,90.9505644 L116.743927,99.8469816 L118.238021,99.8469816 L118.238021,93.5198497 L123.009095,99.8469816 L124.280113,99.8469816 L124.280113,90.9505644 L122.784289,90.9505644 L122.784289,97.1015473 Z M127.614157,96.7083256 L131.271576,96.7083256 L131.271576,95.197714 L127.614157,95.197714 L127.614157,96.7083256 Z M141.292732,93.9379813 C141.292732,92.1195536 140.021714,90.9505644 138.007107,90.9505644 L134.598704,90.9505644 L134.598704,99.8469816 L136.115279,99.8469816 L136.115279,96.9876731 L137.83418,96.9876731 C139.738113,96.9876731 141.292732,95.9485716 141.292732,93.9379813 L141.292732,93.9379813 Z M139.750218,93.9771255 C139.750218,94.9308215 139.034297,95.5802599 137.8826,95.5802599 L136.115279,95.5802599 L136.115279,92.3739911 L137.8826,92.3739911 C139.022193,92.3739911 139.750218,92.9184519 139.750218,93.9771255 L139.750218,93.9771255 Z M151.441855,99.8469816 L149.107332,96.4787981 C150.317825,96.1353964 151.170358,95.2475339 151.170358,93.7707287 C151.170358,92.0288102 149.94776,90.9505644 147.957363,90.9505644 L144.102806,90.9505644 L144.102806,99.8469816 L145.621111,99.8469816 L145.621111,96.7474699 L147.525044,96.7474699 L149.652054,99.8469816 L151.441855,99.8469816 Z M149.624385,93.8614721 C149.624385,94.7778031 148.934404,95.3614081 147.846689,95.3614081 L145.621111,95.3614081 L145.621111,92.3739911 L147.834584,92.3739911 C148.958614,92.3739911 149.624385,92.8810869 149.624385,93.8614721 L149.624385,93.8614721 Z M162.860266,95.3880973 C162.860266,92.8686319 161.008211,90.797546 158.352042,90.797546 C155.694145,90.797546 153.81788,92.8953212 153.81788,95.4130073 C153.81788,97.9306934 155.669935,100 158.326103,100 C160.984001,100 162.860266,97.9057834 162.860266,95.3880973 L162.860266,95.3880973 Z M161.265873,95.4130073 C161.265873,97.1549258 160.069214,98.5676768 158.352042,98.5676768 C156.633142,98.5676768 155.410544,97.1300158 155.410544,95.3880973 C155.410544,93.6461788 156.608932,92.2334278 158.326103,92.2334278 C160.045004,92.2334278 161.265873,93.6710888 161.265873,95.4130073 L161.265873,95.4130073 Z M169.018218,97.79013 L166.41047,90.9505644 L164.731342,90.9505644 L168.324778,99.9110358 L169.65805,99.9110358 L173.256674,90.9505644 L171.612133,90.9505644 L169.018218,97.79013 Z M182.375148,90.9505644 L175.962992,90.9505644 L175.962992,99.8469816 L182.437402,99.8469816 L182.437402,98.4520234 L177.483025,98.4520234 L177.483025,96.0606664 L181.82005,96.0606664 L181.82005,94.6621497 L177.483025,94.6621497 L177.483025,92.3490812 L182.375148,92.3490812 L182.375148,90.9505644 Z M191.64061,97.1015473 L187.00615,90.9505644 L185.598519,90.9505644 L185.598519,99.8469816 L187.092614,99.8469816 L187.092614,93.5198497 L191.863687,99.8469816 L193.134705,99.8469816 L193.134705,90.9505644 L191.64061,90.9505644 L191.64061,97.1015473 Z M204.195156,98.4271134 L203.219844,97.4093633 C202.476255,98.1210767 201.796649,98.5676768 200.736603,98.5676768 C199.079956,98.5676768 197.881568,97.1406915 197.881568,95.3880973 C197.881568,93.6337238 199.079956,92.2334278 200.736603,92.2334278 C201.722291,92.2334278 202.465879,92.6800279 203.15759,93.3401421 L204.132902,92.1836078 C203.304578,91.3704753 202.341371,90.797546 200.746979,90.797546 C198.128855,90.797546 196.288905,92.8686319 196.288905,95.4130073 C196.288905,97.9822926 198.165169,100 200.686454,100 C202.305057,100 203.294203,99.3914851 204.195156,98.4271134 L204.195156,98.4271134 Z M213.432949,90.9505644 L207.024252,90.9505644 L207.024252,99.8469816 L213.496933,99.8469816 L213.496933,98.4520234 L208.542556,98.4520234 L208.542556,96.0606664 L212.879581,96.0606664 L212.879581,94.6621497 L208.542556,94.6621497 L208.542556,92.3490812 L213.432949,92.3490812 L213.432949,90.9505644 L213.432949,90.9505644 Z" id="Fill-1"></path>
                <path d="M134.65096,11.0429448 C137.353253,11.0429448 139.263804,8.943347 139.263804,6.42816617 C139.263804,3.91117846 137.378275,1.8404908 134.675981,1.8404908 C131.9719,1.8404908 130.06135,3.93647482 130.06135,6.45526941 C130.06135,8.97045024 131.948666,11.0429448 134.65096,11.0429448 M134.65096,3.27515572 C136.397085,3.27515572 137.642785,4.71343441 137.642785,6.45526941 C137.642785,8.19710441 136.422106,9.60466609 134.675981,9.60466609 C132.928069,9.60466609 131.684156,8.17000117 131.684156,6.42816617 C131.684156,4.68633117 132.90126,3.27515572 134.65096,3.27515572" id="Fill-2"></path>
                <polyline id="Fill-3" points="166.257669 9.57242067 161.659106 9.57242067 161.659106 1.8404908 160.122699 1.8404908 160.122699 11.0429448 166.257669 11.0429448 166.257669 9.57242067"></polyline>
                <polyline id="Fill-4" points="121.677794 7.16498134 125.563124 7.16498134 125.563124 11.0429448 126.993865 11.0429448 126.993865 1.8404908 125.563124 1.8404908 125.563124 5.667994 121.677794 5.667994 121.677794 1.8404908 120.245399 1.8404908 120.245399 11.0429448 121.677794 11.0429448 121.677794 7.16498134"></polyline>
                <polyline id="Fill-5" points="157.668712 9.5964177 152.973446 9.5964177 152.973446 7.12573448 157.082844 7.12573448 157.082844 5.67920739 152.973446 5.67920739 152.973446 3.28701789 157.610458 3.28701789 157.610458 1.8404908 151.533742 1.8404908 151.533742 11.0429448 157.668712 11.0429448 157.668712 9.5964177"></polyline>
                <polyline id="Fill-6" points="133.351072 0 131.90184 1.8404908 133.074352 1.8404908 134.03755 0.996409818 134.9972 1.8404908 136.196319 1.8404908 134.747088 0 133.351072 0"></polyline>
                <polyline id="Fill-7" points="144.355705 11.0429448 145.828344 11.0429448 145.828344 3.33934703 148.466258 3.33934703 148.466258 1.8404908 141.717791 1.8404908 141.717791 3.33934703 144.355705 3.33934703 144.355705 11.0429448"></polyline>
                <path d="M226.628601,53.9255928 C227.041859,53.5123366 228.220859,52.9827436 228.220859,52.5087144 C228.220859,52.3889048 228.220859,52.272568 228.043748,52.272568 C227.868374,52.272568 225.623238,53.3334904 225.15268,53.5713732 C223.263501,54.5159588 220.488769,55.224398 218.424216,55.224398 C217.715774,55.224398 215.883896,54.7521052 215.883896,53.8665562 C215.883896,53.68771 215.828332,53.3942634 216.003706,53.2761902 C217.066369,52.4514142 218.481517,52.0937218 219.723027,51.5641288 C221.494132,50.8556896 226.689374,47.1971568 226.689374,45.1881761 C226.689374,43.1218951 224.445974,42.9447853 222.850243,42.9447853 C219.66399,42.9447853 218.089096,44.1532992 216.12178,46.429681 C215.290055,47.3916303 215.007025,48.8988 214.133627,50.1090503 C212.154157,52.4253686 208.118815,53.8665562 205.733033,53.8665562 C205.142664,53.8665562 204.083474,54.1218027 203.783081,53.5262276 L203.783081,53.2761902 C203.902891,52.211795 205.614959,50.9720264 205.614959,48.9665184 C205.614959,47.7857864 205.080155,47.7267498 204.078265,47.7267498 C201.010086,47.7267498 196.643096,52.1527584 194.458733,52.1527584 C193.927401,52.1527584 193.750291,51.6231654 193.750291,51.2116456 C193.750291,50.50147 195.814844,48.8467089 195.814844,47.844823 C195.814844,46.7821642 194.161812,46.6658274 193.39607,46.6658274 C190.478955,46.6658274 186.289076,50.4823699 183.618528,52.1162947 C181.625166,53.2813993 179.803706,53.8665562 177.397087,53.8665562 C176.810191,53.8665562 176.278859,53.8075196 175.686755,53.68771 L175.452344,53.2761902 C175.568681,52.211795 177.280749,50.9720264 177.280749,48.9665184 C177.280749,47.7857864 176.749418,47.7267498 175.745792,47.7267498 C172.67414,47.7267498 168.308886,52.1527584 166.122787,52.1527584 C165.591455,52.1527584 165.416081,51.6231654 165.416081,51.2116456 C165.416081,50.50147 167.480634,48.8467089 167.480634,47.844823 C167.480634,46.7821642 165.827603,46.6658274 165.060124,46.6658274 C162.587522,46.6658274 155.970187,49.34852 152.257812,51.2654731 C152.778725,50.0083408 153.138155,48.509853 153.138155,47.6694496 C153.138155,47.3725302 153.020082,46.9575377 152.665861,46.9575377 C151.721271,46.9575377 150.894755,47.3134936 150.12554,47.844823 C149.654982,47.3725302 149.005577,47.020047 148.297134,47.020047 C146.998324,47.020047 145.286256,47.54964 144.166292,48.1990426 C143.693997,48.1990426 140.063232,51.621429 139.620456,52.0364216 C138.345954,53.2206263 136.196319,56.109947 136.196319,57.6431622 C136.196319,58.9437038 136.906497,60.1226994 138.321645,60.1226994 C139.323535,60.1226994 140.210824,59.7111796 141.155413,59.4159966 C142.983819,58.8846672 145.610958,57.9418179 147.130289,56.7975497 C148.40479,55.8356004 150.540534,53.5713732 150.540534,53.5713732 L150.795782,53.3786361 C152.344631,52.6892969 154.652276,51.5658652 155.548247,51.2706822 C156.885258,50.8313804 159.45857,50.374715 160.21563,50.5118882 C160.974427,50.6525343 160.988318,50.8556896 161.106392,51.0327994 C161.281766,51.3279824 161.292184,51.5155104 161.292184,51.8089571 C161.292184,53.9933113 157.682255,55.2816982 157.682255,57.6431622 C157.682255,58.2352646 158.095513,58.645048 158.685882,58.645048 C159.984692,58.645048 168.543297,51.9183484 170.906507,51.9183484 C172.616839,51.9183484 171.081881,55.8738006 173.148171,55.8738006 C173.797576,55.8738006 174.445245,56.049174 175.098123,56.049174 C175.804828,56.049174 176.452497,55.8738006 177.103639,55.6966908 C178.154147,55.4344988 180.821223,54.6843867 182.541973,53.6668736 C182.547183,53.6634008 182.548919,53.6634008 182.552392,53.6616645 C184.693345,52.5087144 186.9871,50.9529264 188.791196,50.9164626 C189.027344,50.9095171 189.322528,50.8556896 189.440602,51.0327994 C189.617712,51.3279824 189.499638,51.682202 189.499638,51.977385 C189.499638,54.1582665 186.014729,55.2816982 186.014729,57.6431622 C186.014729,58.2352646 186.431459,58.645048 187.020091,58.645048 C188.320638,58.645048 196.877507,51.9183484 199.23898,51.9183484 C200.951049,51.9183484 199.555001,55.8581733 201.548363,56.0370194 C202.196031,56.0977924 202.779454,56.049174 203.432332,56.049174 C204.139038,56.049174 204.788443,55.8738006 205.436112,55.6966908 C206.601221,55.4049805 210.09134,54.4603949 211.857236,53.2501446 C212.546578,52.8473067 213.166465,52.3125045 213.709951,51.7707569 C213.826289,54.3093307 214.704896,56.8183862 217.715774,56.8183862 C220.488769,56.8183862 223.676759,55.8738006 225.980932,54.3371126 C226.215343,54.2207758 226.45149,54.1027026 226.628601,53.9255928 M219.782064,45.7212418 C220.313395,45.4260588 221.671243,45.1291395 222.318911,45.1291395 C223.088127,45.1291395 223.91117,45.7212418 223.676759,46.429681 C223.442348,47.0790836 222.850243,47.54964 222.377948,48.0236692 C221.374322,49.0238187 219.898401,49.320738 218.778438,50.1455141 C218.188069,50.6178069 217.656738,50.8556896 216.889259,50.8556896 C216.653111,50.7376164 216.4187,50.6803162 216.4187,50.3833968 C216.4187,49.1436282 218.719401,46.3081351 219.782064,45.7212418 M141.568671,57.585862 C141.155413,57.7021988 140.742156,57.8220084 140.269861,57.8220084 C139.738529,57.8220084 139.148161,57.4677888 139.148161,56.87395 C139.148161,55.3997714 140.978303,53.3334904 141.981929,52.3316046 C142.749408,51.6231654 145.699514,49.2617014 146.644103,49.2617014 C147.234471,49.2617014 149.477871,50.6803162 149.477871,51.3279824 C149.477871,51.682202 149.359798,52.0364216 149.182687,52.3889048 C147.177171,56.049174 145.345293,56.5232032 141.568671,57.585862" id="Fill-8"></path>
                <path d="M42.6876914,15.9509202 C42.1019577,15.9509202 41.3238422,16.1767155 40.3550627,16.6283059 C39.3845655,17.0798964 38.4054799,17.5959998 37.4178057,18.1749184 C36.4301316,18.753837 35.5592607,19.30729 34.8120637,19.8318819 C34.0614313,20.3530784 33.6113955,20.6705499 33.4653915,20.7792033 C32.8418685,21.3207723 31.9830214,21.945529 30.8871326,22.6500781 C29.789526,23.3563248 28.7090964,24.1966905 27.6475614,25.1745706 C27.4276965,25.3918773 27.0978992,25.6872786 26.6598872,26.0675653 C26.2201575,26.4512474 25.7529447,26.8756746 25.2599665,27.3425444 C24.7652706,27.8128097 24.2808808,28.2847726 23.8050796,28.7533402 C23.3292783,29.2236054 22.9273378,29.6225669 22.5975406,29.948527 C21.7180812,30.7447523 20.7767848,31.6649103 19.770216,32.7140942 C18.7636472,33.7666734 17.7570784,34.8583 16.7539451,35.9991601 C15.7422232,37.1366248 14.7562667,38.265601 13.7874872,39.389484 C12.8187077,40.508274 11.9495545,41.5404807 11.1800275,42.4793135 C10.5925761,43.1668855 10.1442579,43.7559904 9.835073,44.2432327 C9.52417035,44.7338705 9.25792776,45.1226457 9.03806291,45.4095584 C8.63612248,45.9528252 8.05897724,46.5690934 7.31006259,47.2532699 C6.55943024,47.9408418 5.78131479,48.5944596 4.97743393,49.2090301 C4.17183537,49.8236006 3.43150919,50.3668673 2.75473769,50.8354349 C2.0762485,51.3073978 1.61075339,51.6146831 1.35481696,51.7572906 L0.751906309,52.1375773 C0.494252185,52.2818825 0.274387334,52.4635373 0.0905940592,52.6791463 C-0.0914815212,52.896453 0.00127396314,53.0068041 0.365425124,53.0068041 C0.513146821,53.0068041 0.641973883,52.9983155 0.751906309,52.9796407 C0.86012104,52.9592682 1.04219662,52.8794759 1.29813305,52.733473 C1.99379918,52.3379069 2.57094442,52.0747621 3.02956876,51.947434 C3.4864754,51.8218035 6.49072248,49.6979702 6.67279806,49.8813227 C5.93590727,52.7674272 6.1317244,53.8590537 6.1317244,53.9286598 C6.1317244,54.3972273 6.27601071,54.8590041 6.56801872,55.3139899 C6.86002672,55.7655804 7.23791944,56.1611465 7.69482608,56.507479 C8.15001503,56.8487184 8.68421791,57.1288403 9.28712856,57.3444493 C9.89003921,57.561756 10.503256,57.6687117 11.1250613,57.6687117 C12.4768866,57.6687117 13.8235588,57.4819637 15.1599249,57.101677 C16.4962909,56.7247857 17.731313,56.1900075 18.8649912,55.5007379 C19.2291423,55.2834312 19.6877667,55.005007 20.2374288,54.6586745 C20.7853732,54.3191328 21.3350354,53.9812888 21.8829798,53.6570264 C22.4206181,53.3378572 22.8947017,53.0475491 23.3086659,52.7793111 C23.269159,52.8726851 23.2502643,52.9202209 23.207322,53.0984803 C23.1334611,53.3887885 23.3172544,54.5585097 23.3911153,54.6688607 C23.7569841,55.4260387 23.8600458,55.465086 24.2980578,55.9353513 C24.7377875,56.4073142 25.5055968,56.6399003 26.604921,56.6399003 C29.2037923,56.6399003 31.4814547,56.234148 33.4379084,55.4192479 C35.3960797,54.6060455 37.0708315,53.6773989 38.4604461,52.6248196 C38.6081678,52.517864 38.7438656,52.3905359 38.8726927,52.2462307 C38.999802,52.1002277 39.0650744,51.9949698 39.0650744,51.9202706 C39.0650744,51.8472691 38.9912136,51.8048264 38.8434919,51.7861516 C38.6992056,51.7674768 38.4432691,51.8472691 38.0774003,52.028924 C36.1724775,53.0798055 34.2984731,53.8590537 32.4502342,54.3615755 C30.603713,54.8674926 29.019999,55.1204512 27.7025276,55.1204512 C27.6286667,55.1204512 27.4912512,55.1034741 27.2919987,55.0661245 C27.0893108,55.0304726 26.8866229,54.9880299 26.6856527,54.9320055 C26.4864001,54.8793766 26.3008892,54.7877003 26.1377082,54.6586745 C25.9728096,54.5347417 25.892078,54.3972273 25.892078,54.2529221 C25.892078,53.9660094 26.1548852,53.6638173 26.6856527,53.3599274 C27.2164201,53.0509445 27.829637,52.7436592 28.5270208,52.436374 C29.2192515,52.1307865 29.8788461,51.8574554 30.5023691,51.6214739 C31.1241743,51.3871901 31.5450094,51.1970468 31.7648743,51.0527416 C32.496612,50.5824763 33.2644213,50.1139088 34.0700198,49.6419458 C34.8739007,49.1733782 35.6073561,48.6640657 36.2669506,48.1241944 C36.9248275,47.5775322 37.4641835,46.9663572 37.8850185,46.2770875 C38.3058536,45.5912133 38.51713,44.8136628 38.51713,43.9427383 C38.51713,43.6575233 38.3676906,43.3757036 38.0774003,43.105768 C37.7836746,42.8324369 37.3834518,42.6983179 36.8698613,42.6983179 C36.0281912,42.6983179 35.1659087,42.7781102 34.2898847,42.9410903 C33.412143,43.105768 32.496612,43.4402166 31.5450094,43.9427383 C30.2292557,44.6676598 28.9375497,45.5844224 27.6750445,46.6862353 C26.4125393,47.7863504 25.3613105,49.0103982 24.5196403,50.3481925 C24.3461532,50.6537801 24.1640776,50.9916241 23.9751313,51.3430497 C23.5852147,51.6978708 23.2536997,51.9525271 23.145485,52.028924 C22.9273378,52.1732292 22.606129,52.3752565 22.1870117,52.6248196 C21.7644589,52.8794759 21.3075523,53.1392253 20.814574,53.4108587 C20.3198781,53.6858875 19.8337707,53.9473346 19.3579694,54.1985954 C18.8821681,54.4549494 18.4991223,54.6349065 18.2071143,54.7435599 C17.2177225,55.1747778 16.2472253,55.5211104 15.2956227,55.7723712 C14.3457378,56.0253298 13.4679961,56.1526579 12.6641153,56.1526579 C11.37928,56.1526579 10.4019121,55.7655804 9.72514057,54.9880299 C9.04836907,54.2104794 8.82163345,53.2393901 8.76494954,52.086646 C8.72372488,51.2055353 9.59116043,48.8643953 11.1800275,47.310992 C12.0302861,46.4774171 13.0282664,45.8628466 13.979869,45.2465784 C14.9297539,44.6320079 15.8727679,44.0089489 16.8071936,43.3757036 C17.7381838,42.7424584 18.6726094,42.0990268 19.607035,41.4505022 C20.539743,40.7968844 21.4260731,40.0753583 22.2677433,39.279133 C23.5852147,38.1586454 24.9937239,36.9923196 26.4949886,35.7801557 C27.9962533,34.5696896 29.5129772,33.3201761 31.0520312,32.0384062 C32.5893675,30.7532408 34.124986,29.4409121 35.6623223,28.1031178 C37.1979409,26.7670212 38.6820286,25.3918773 40.1077148,23.9793838 C40.2537188,23.8367763 40.5474445,23.4768621 40.9854565,22.8945481 C41.4251862,22.3173272 41.8838105,21.6823842 42.3596118,20.9982077 C42.8336954,20.308938 43.2545305,19.6468317 43.622117,19.0169818 C43.9862682,18.3854343 44.1717791,17.9389369 44.1717791,17.6859784 C44.1717791,17.3260641 44.0979183,16.9440797 43.9501966,16.5485136 C43.8024749,16.1512499 43.3833575,15.9509202 42.6876914,15.9509202 M26.9330006,50.8354349 C27.2627979,50.2208644 27.7660823,49.5808283 28.4428538,48.9119311 C29.121343,48.2396385 29.8702576,47.608091 30.6947508,47.0087999 C31.5175263,46.4146019 32.3420195,45.9256618 33.164795,45.5470728 C33.9875705,45.1650884 34.6901074,44.9766428 35.2775588,44.9766428 C35.9732249,44.9766428 36.3219169,45.2312991 36.3219169,45.7355185 C36.3219169,45.9528252 36.1364059,46.2329471 35.770537,46.5775819 C35.4046682,46.9222167 34.9391731,47.2838287 34.372334,47.6607199 C33.8054949,48.0410067 33.1819719,48.4297819 32.5034828,48.8270457 C31.8267113,49.2277049 31.1688344,49.5978054 30.5281345,49.9407425 C29.8891522,50.2853773 29.3223132,50.5739878 28.8258996,50.8065738 C28.334639,51.044253 27.9773587,51.1970468 27.7574938,51.2683505 C27.4276965,51.4160512 27.1992432,51.4686801 27.0721338,51.4313306 C26.9415891,51.3956787 26.8608575,51.3430497 26.8230682,51.2683505 C26.7869966,51.1613949 26.8230682,51.015392 26.9330006,50.8354349 M39.7229513,21.6467323 C39.3192932,22.2630005 38.7627602,22.9488748 38.0499172,23.7077505 C37.3370741,24.4700216 36.5675471,25.2373858 35.7430539,26.0149363 C34.9219961,26.7924868 34.2366362,27.4359184 33.686974,27.9401378 C32.9535186,28.6650593 32.0500115,29.5139136 30.9695819,30.490096 C29.8908699,31.4696738 28.7262733,32.4798104 27.4826627,33.5272965 C26.2390522,34.5781781 24.9490639,35.6392459 23.6126978,36.7037092 C22.2797671,37.7698701 20.9863434,38.7647273 19.7427329,39.686583 C18.4991223,40.6067411 17.3379611,41.4318274 16.2575314,42.1567489 C15.1788195,42.878275 14.2701593,43.4215418 13.5401393,43.7831537 C14.1997338,42.9869284 15.0310978,42.010746 16.0376666,40.8529088 C17.0425177,39.6967693 18.1607366,38.4472558 19.3871702,37.1094615 C20.6118861,35.7699695 21.893286,34.4067095 23.2279343,33.0111931 C24.5643004,31.6207699 25.892078,30.3084412 27.2095494,29.0793002 C28.3415098,28.0301164 29.5490488,26.9554669 30.8321663,25.8519563 C32.1135662,24.7501435 33.3382821,23.7620771 34.5080318,22.8945481 C35.6812169,22.027019 36.7513404,21.3598196 37.7184022,20.8878566 C38.6888994,20.4175914 39.4103309,20.2919609 39.8878499,20.5092676 C40.1815756,20.6535728 40.1266094,21.0338595 39.7229513,21.6467323" id="Fill-9"></path>
                <path d="M117.957566,47.2392638 C118.275217,47.2392638 118.404908,46.9845914 118.404908,46.7409121 C118.404908,46.1784342 117.446319,45.2421925 117.446319,43.8735573 C117.446319,42.4389639 118.404908,41.1326227 118.404908,39.6980293 C118.275217,39.4525178 118.087258,39.2638037 117.829755,39.2638037 C116.80726,39.2638037 115.337423,39.3883916 115.337423,40.696565 C115.337423,42.1934524 115.912577,47.2392638 117.957566,47.2392638" id="Fill-10"></path>
                <path d="M90.3242006,49.0364894 C93.6748274,50.178602 96.7192882,49.9679875 97.0873755,49.9679875 C97.5982257,49.9679875 101.3135,49.4971015 105.494903,46.6289778 C106.416842,45.9971345 107.146136,45.5159746 107.581305,45.041664 C108.608165,43.9543455 112.399121,38.9287078 112.258078,34.8088836 C112.233998,34.1513555 112.294199,33.5503338 112.258078,33.004106 C112.220238,32.5297954 112.147996,32.1017173 112.036194,31.7181592 C111.927832,31.3363135 111.779909,30.8893999 111.595865,30.3774184 C111.413541,29.7935198 111.274219,29.3294831 111.184777,28.9835959 C111.091895,28.6359964 110.937092,28.2815477 110.716928,27.9151128 C110.608565,27.7336077 110.407321,27.3979944 110.111475,26.903136 C109.81735,26.40999 109.34434,25.8552007 108.683847,25.2336312 C108.025074,24.6171986 107.154736,23.9870676 106.072835,23.3466626 C104.992653,22.70797 103.608026,22.1685915 101.924112,21.7319518 C100.419082,21.3295583 99.0912155,21.0110682 97.9387925,20.774769 C96.7829295,20.5384699 95.6614671,20.2696368 94.5589251,20.254226 C86.3664016,20.1480626 79.7889903,21.0299036 78.7260091,21.2679151 C77.6647479,21.5042142 76.6946486,21.7319518 75.812271,21.9511278 C74.9350535,22.1685915 74.1197572,22.406603 73.3681022,22.6617376 C72.6147272,22.9168722 71.9095131,23.2096776 71.25246,23.5384417 C69.6769085,24.339804 68.1168374,25.3158222 66.5791267,26.4664963 C65.039696,27.6154581 63.6757088,28.8277755 62.483725,30.1034484 C61.2934612,31.3842583 60.8514124,32.1308266 60.2253199,33.4972521 C58.2799611,37.7506367 60.8170117,40.7745809 61.7165897,41.4303966 C62.6127275,42.0879247 62.9068534,42.3344977 64.1710786,42.8276437 C64.1710786,42.8276437 65.7569503,43.5296919 66.5860068,42.86189 C67.7160694,41.9509397 66.5292457,41.2916993 66.5292457,41.2916993 C66.4329238,41.2540284 66.341762,41.2112206 66.2557602,41.1667005 C64.8350119,40.4715015 64.1487182,39.4218539 63.4572644,37.9030325 C63.3007413,37.5588577 62.6522883,35.0092241 63.787511,32.9236273 C64.7765307,31.1085759 66.142238,29.6051654 67.5526661,28.2181921 C68.9613742,26.8312189 70.7467699,25.6548601 72.908853,24.6874034 C75.0726562,23.7233714 76.7290493,23.2268008 79.8801521,22.7165316 C83.031255,22.2079747 86.9340129,21.9511278 91.5884258,21.9511278 C91.8103102,21.9511278 92.2678394,22.0076341 92.9627332,22.1155098 C93.6593471,22.2250978 94.6500869,22.3346859 95.9315125,22.4425616 C96.7743293,22.5196156 97.7736692,22.6976961 98.9278123,22.9905016 C100.081955,23.2815948 101.227498,23.6548789 102.364441,24.1120664 C103.497943,24.5709662 104.542004,25.0897969 105.494903,25.6736955 C106.449522,26.2575942 107.146136,26.8945745 107.581305,27.5863488 C107.913272,28.0983303 108.171277,28.53497 108.3536,28.8996926 C108.537644,29.2644152 108.718248,29.7575612 108.904011,30.3774184 C108.976253,30.6702239 109.096655,31.0263849 109.261779,31.4459015 C109.425182,31.8637058 109.543864,32.3859612 109.617826,33.004106 C109.655666,33.5160875 110.185437,39.0331589 104.122316,44.43893 C103.850551,44.680366 98.7833294,48.8686828 91.2048582,46.8224692 C90.4377228,46.613567 89.7479891,46.1461057 89.0324548,45.7265891 C88.3186406,45.3070725 87.6856679,44.849885 87.1352569,44.3584513 C86.586566,43.8670175 86.2924401,43.4029808 86.2580394,42.9629164 C86.6983682,42.3071007 87.3210206,41.6136141 88.1277167,40.8841689 C88.9326928,40.1547237 89.8219506,39.4252785 90.7937699,38.694121 C91.7621493,37.9663881 92.752889,37.2557784 93.7608292,36.5605794 C94.7670492,35.8688051 95.6735073,35.2284002 96.4819235,34.6479262 C97.1768173,34.2438204 97.8355905,33.8243038 98.4599629,33.3876641 C99.0826154,32.949312 99.4489827,32.6958897 99.5607849,32.620548 C99.9254322,32.291784 100.429402,31.9835677 101.070975,31.6907622 C101.710828,31.3996691 102.364441,31.0178233 103.023214,30.5435127 C103.683707,30.0692021 104.194557,29.6394117 104.562645,29.2558536 C104.927292,28.8722956 105.073495,28.6805166 105.001253,28.6805166 C104.892891,28.1360011 104.82753,27.7969632 104.80861,27.6702521 C104.789689,27.5418286 104.562645,27.4767608 104.122316,27.4767608 C103.573625,27.4767608 102.911412,27.6702521 102.144276,28.0503855 C101.371981,28.4356559 100.529164,28.918528 99.614106,29.5024266 C98.6973277,30.0863253 97.7186281,30.742141 96.6745673,31.4715862 C95.6270664,32.2027437 94.5193643,32.9150658 93.349741,33.6068401 L89.391942,36.8345494 C88.439043,37.6735826 87.5669856,38.4852188 86.7792098,39.2677457 C85.9914341,40.0554095 85.2311789,40.7557454 84.4984443,41.3756026 L74.0010748,51.8823531 C73.0825765,52.7573448 72.1675182,53.6700075 71.25246,54.6169164 C70.3339616,55.5672499 69.4361037,56.4319678 68.5571662,57.216207 C67.6799487,58.0021585 65.338982,59.7932376 64.5340059,60.3035067 C64.5340059,60.3035067 62.4527644,62.5209516 63.7961112,63.0843025 C65.1652585,63.6613518 66.6892089,61.7230139 67.4580642,61.0466504 C68.2269196,60.3719992 68.9424539,59.7076219 69.602947,59.0518062 C69.9331936,58.7230421 70.4079231,58.2658547 71.0322956,57.681956 C71.653228,57.0997697 72.3240414,56.471351 73.0378556,55.7949875 C73.7516698,55.118624 74.4586039,54.4268497 75.1552179,53.7145276 C75.8518318,53.0056302 80.9895743,47.4971204 81.5571856,46.9303449 C82.126517,46.3652817 82.6562875,45.8635741 83.1516574,45.425222 C83.6470273,44.98687 84.0770359,44.6409828 84.4451232,44.3858483 C84.5173647,44.7505709 84.7478493,45.1444028 85.1314169,45.5622071 C85.5149846,45.9817237 85.9914341,46.4029526 86.5607655,46.8224692 C87.1283768,47.2402735 87.7510292,47.6409546 88.4304428,48.0245127 C89.1064163,48.4063584 89.7067083,48.8241627 90.3242006,49.0364894" id="Fill-11"></path>
                <path d="M279.905458,34.754005 C279.354438,34.754005 278.589228,34.8190461 277.615011,34.945705 C276.640794,35.0757871 275.488661,35.2092924 274.165522,35.3564906 C272.840655,35.5036888 271.356874,35.6389057 269.71936,35.7672762 C268.081846,35.8939351 266.342419,35.9572646 264.502807,35.9572646 C262.590647,35.9572646 260.751034,35.8220477 258.98397,35.5481906 C257.218633,35.2726219 255.377294,35.1031728 253.465133,35.0295737 C254.052427,34.6273461 254.983461,34.0077445 256.253053,33.1673455 C257.520917,32.3286582 258.811237,31.4112369 260.115375,30.4065237 C261.422968,29.4035221 262.573373,28.4193482 263.566591,27.4522904 C264.561536,26.4886558 265.057282,25.6739309 265.057282,25.0200971 C265.057282,24.6161579 264.879366,24.3354544 264.532172,24.1711401 C264.181523,24.0051143 263.860238,23.9263804 263.566591,23.9263804 C262.535372,23.9263804 261.625066,24.1351964 260.833946,24.5545401 C260.042827,24.9738837 259.296618,25.5027702 258.598774,26.1377764 C257.897476,26.7779173 257.218633,27.4522904 256.555336,28.1660304 C255.893767,28.8746356 255.175195,29.5027953 254.399622,30.0522211 C253.411586,30.7813656 252.544463,31.4745664 251.808618,32.1301118 C251.071046,32.7873688 250.226379,33.5165133 249.271163,34.3158337 C247.355548,34.0984596 245.431296,33.8605463 243.501862,33.6055169 C241.568974,33.352199 239.718997,33.2221169 237.95366,33.2221169 C235.818674,33.2221169 233.721689,33.143383 231.660977,32.9773572 C229.600266,32.8113313 227.503281,32.7325974 225.366567,32.7325974 C223.60123,32.7325974 221.865258,32.7770992 220.150014,32.8661027 C218.439951,32.9585295 216.702252,33.151941 214.936915,33.4412026 C214.639813,33.4771463 214.145795,33.552457 213.441042,33.6619999 C212.744926,33.7698311 212.034991,33.9255873 211.318147,34.1241337 C210.60303,34.3261033 209.967371,34.5554586 209.414623,34.8087764 C208.863603,35.0638058 208.588957,35.3564906 208.588957,35.6851191 C208.588957,35.9418601 208.753054,36.1780619 209.082975,36.3988592 C209.414623,36.6162332 209.811911,36.8062216 210.269654,36.9705358 C210.730853,37.1348501 211.200688,37.261509 211.67916,37.3522241 C212.157632,37.4463625 212.525555,37.4891527 212.7812,37.4891527 C213.040301,37.4891527 213.244126,37.3813215 213.389222,37.1605242 C213.314947,36.9414385 213.197488,36.7873939 213.031664,36.6966787 C212.86584,36.6076752 212.698288,36.5238065 212.532464,36.451919 C212.368367,36.3766083 212.221544,36.2961627 212.091993,36.203736 C211.962443,36.1130208 211.898532,35.9572646 211.898532,35.7381789 C211.898532,35.4831495 212.202543,35.2572174 212.810565,35.0552478 C213.41686,34.8549898 214.188979,34.6923872 215.126922,34.5640167 C216.066592,34.4339345 217.108176,34.3261033 218.248217,34.2353882 C219.389986,34.1463846 220.483389,34.0796319 221.531882,34.0453998 C222.580375,34.0077445 223.528682,33.9803587 224.375076,33.9598195 C225.219743,33.9427034 225.807037,33.935857 226.14214,33.935857 C227.467007,33.935857 228.769418,34.0145909 230.061465,34.1806167 C231.346602,34.344931 232.635194,34.4253765 233.920332,34.4253765 C236.058773,34.4253765 238.24558,34.5178033 240.494571,34.6992336 C242.734925,34.8840871 245.018463,35.2657755 247.336547,35.8477218 C246.051409,37.270067 244.78009,38.7728578 243.529499,40.3612289 C242.277181,41.9478884 241.00759,43.4506792 239.718997,44.8730244 C239.240525,45.3830833 238.734416,45.8657564 238.202397,46.3227554 C237.66865,46.781466 237.141813,47.2624275 236.628794,47.774198 C235.818674,48.5769416 235.10183,49.3950896 234.474807,50.233777 C233.849511,51.0741759 233.060119,51.8033204 232.101448,52.4194989 C230.99768,53.150355 229.985462,53.9719262 229.066519,54.882501 C228.144122,55.7964991 227.209634,56.6899578 226.25269,57.5628773 C225.884767,57.8915058 225.516845,58.2201343 225.148922,58.5470512 C224.779273,58.8756797 224.596175,59.2950234 224.596175,59.8067938 C224.596175,60.1319991 224.704997,60.3716241 224.926096,60.5188223 C225.148922,60.6625972 225.404568,60.7361963 225.698215,60.7361963 C226.14214,60.7361963 226.755344,60.4263955 227.548191,59.8067938 C228.337584,59.1854806 229.168432,58.4666057 230.0321,57.6450344 C230.895768,56.8234632 231.724889,56.0138731 232.514281,55.2128412 C233.308855,54.408386 233.904786,53.8435557 234.308983,53.5149272 C235.487025,52.4982328 236.64434,51.4729803 237.787836,50.4545742 C238.927878,49.432745 240.031645,48.3595675 241.099138,47.2247722 C242.018081,46.2423099 242.885203,45.2495779 243.693596,44.2448648 C244.501989,43.2418632 245.329383,42.2679589 246.179232,41.3180171 C247.025626,40.3714986 247.916932,39.4780398 248.856602,38.6393525 C249.794545,37.7989535 250.870675,37.0338653 252.086719,36.3406645 C254.292527,36.5238065 256.446514,36.7411805 258.5435,36.9962099 C260.640485,37.2512393 262.794472,37.3813215 265.002007,37.3813215 C267.613738,37.3813215 270.208196,37.261509 272.787108,37.0253072 C275.357383,36.7873939 277.953569,36.4673234 280.567027,36.068519 C281.304599,35.9572646 281.643157,35.7107932 281.58961,35.3273933 C281.532608,34.945705 280.972951,34.754005 279.905458,34.754005" id="Fill-12"></path>
                <path d="M137.35876,53.2891023 C137.766339,53.0724884 137.986604,52.9002206 138.023026,52.7688878 C138.062917,52.6460831 138.016089,52.5539795 137.884276,52.4993996 C137.755933,52.4448198 137.589432,52.4277635 137.384776,52.4448198 C137.183589,52.4635816 137.027495,52.5283952 136.916495,52.6358493 C136.175916,53.0008523 135.409322,53.398262 134.614978,53.834901 C133.820634,54.2715401 133.034962,54.6877117 132.259696,55.0902383 C131.966586,55.2710341 131.805289,55.3068522 131.78968,55.1976924 C131.770602,55.0902383 131.853852,54.9435548 132.037696,54.7576421 C132.44354,54.4335741 132.852852,54.1078004 133.256962,53.7820268 C133.66454,53.4528419 134.070384,53.1083064 134.476228,52.7450091 C134.552541,52.5283952 134.552541,52.3271319 134.476228,52.1446304 C134.403384,51.9638346 134.255962,51.8734366 134.033962,51.8734366 C133.702696,51.8734366 133.388774,51.9007266 133.092196,51.9553065 C132.799087,52.0081807 132.48343,52.110518 132.15043,52.2537902 C131.81743,52.4004736 131.437602,52.5897976 131.01268,52.8251733 C130.589492,53.0639603 130.060508,53.3436821 129.432664,53.6711614 C128.659132,54.1078004 128.03996,54.4728034 127.575147,54.7576421 C127.117272,55.0527146 126.671537,55.2880903 126.246615,55.4688862 C125.821693,55.6513876 125.370756,55.7810148 124.888599,55.8492397 C124.409911,55.9259927 123.743911,55.9583995 122.894067,55.9583995 C122.229801,55.9583995 121.785801,55.7878373 121.563801,55.4415962 C121.340066,55.0970607 121.230801,54.7235297 121.230801,54.32612 C121.230801,54.1794365 121.258551,53.9781732 121.312316,53.7257413 C121.371285,53.4716037 121.506567,53.1816481 121.728567,52.8541688 C121.950567,52.5283952 122.274895,52.1633923 122.699817,51.7642769 C123.124739,51.3634559 123.707489,50.9455787 124.444599,50.5106453 C124.814021,50.2923258 125.223334,50.1012962 125.663865,49.9375566 C126.1096,49.7738169 126.550131,49.6373672 126.994131,49.5282075 C127.439866,49.4207533 127.843975,49.3405891 128.213397,49.2843036 C128.582819,49.2314294 128.862054,49.2024338 129.044163,49.2024338 C129.267898,49.2024338 129.41532,49.3013599 129.488164,49.4992119 C129.564476,49.7038865 129.600898,49.8556867 129.600898,49.9665521 C129.600898,50.0740063 129.534992,50.2019279 129.406648,50.3469057 C129.27657,50.4935891 129.148226,50.6488006 129.018148,50.8108346 C128.88807,50.9728686 128.770132,51.1349027 128.659132,51.3003479 C128.549866,51.4623819 128.492632,51.597126 128.492632,51.709697 C128.492632,51.7813331 128.527319,51.8376186 128.603632,51.8734366 C128.712898,51.9092547 128.952241,51.9092547 129.321663,51.8734366 C129.508976,51.8376186 129.793414,51.7472207 130.181914,51.597126 C130.572148,51.4538538 130.95718,51.2542961 131.34568,51.0001586 C131.73418,50.7494323 132.06718,50.4390092 132.342946,50.0740063 C132.620446,49.7107089 132.741852,49.2945374 132.70543,48.8203747 C132.70543,48.7129205 132.61004,48.5747652 132.426196,48.4127312 C132.240618,48.2472859 132.018618,48.0767238 131.76193,47.8942224 C131.503508,47.7117209 131.215602,47.558215 130.90168,47.4302934 C130.589492,47.3040774 130.318929,47.2392638 130.100398,47.2392638 C129.24882,47.2392638 128.352147,47.3501292 127.410381,47.5667431 C126.468615,47.7850626 125.608365,48.0392002 124.834834,48.3274501 C123.539255,48.8391365 122.189911,49.4821557 120.786801,50.2633302 C119.669863,50.8841763 118.592815,51.5596023 117.520971,52.2401452 L117.515768,52.236734 C115.98258,52.7603597 112.024735,55.636037 110.253937,55.636037 C109.841156,55.636037 109.544577,55.3494927 109.430108,54.9981347 C109.487343,52.9684455 114.497954,49.5503806 114.497954,48.7350936 C114.497954,48.4485492 114.204845,48.2131735 113.910001,48.2131735 C113.20411,48.2131735 112.199906,49.5503806 111.610219,50.0143095 C109.783921,51.4606763 107.482405,52.3322488 105.420232,53.4323744 C104.946747,53.6660445 103.177684,54.7678758 102.352121,55.1124113 C102.176949,55.2318048 101.93934,55.4057782 101.998309,55.5200548 C102.117981,55.6957338 102.352121,55.7520193 102.589731,55.7520193 C102.766637,55.7520193 107.307233,53.5483567 108.073827,53.2618123 C107.543108,54.3056525 107.130326,55.4057782 107.130326,56.5656006 C107.130326,56.9715385 107.543108,57.7424792 108.013124,57.7237174 C110.720484,57.6179689 116.764783,53.6336377 118.195643,52.7126023 C118.391628,52.5863863 118.504362,52.5011053 118.580675,52.4328804 C118.603222,52.4209411 118.629237,52.4038848 118.653518,52.3919455 C119.078441,52.1548641 119.680269,51.8546748 120.4538,51.4896719 C119.531113,52.2913138 118.80094,53.0724884 118.265018,53.834901 C117.730831,54.5973137 117.517502,55.361432 117.628502,56.1238447 C117.703081,56.6338255 118.138409,57.014179 118.932753,57.2666109 C119.727097,57.5224541 120.564801,57.6520813 121.452801,57.6520813 C121.895067,57.6520813 122.413645,57.612852 123.005067,57.5429216 C123.594755,57.4678742 124.167099,57.3587145 124.723833,57.2137367 C125.9431,56.9595991 126.513709,56.9595991 126.439131,57.2137367 C126.366287,57.4678742 125.977787,57.7782973 125.275365,58.1415946 C125.018677,58.3240961 124.758521,58.5219481 124.500099,58.7419733 C124.243411,58.9585872 123.946833,59.2127247 123.613833,59.5026803 C121.544723,61.3583962 119.189441,63.556942 116.547986,66.0949063 C113.904798,68.6413988 114.164954,68.5185941 111.135,71.2083587 C111.025734,71.3158129 110.831484,71.4983143 110.55225,71.7541575 C110.276484,72.0065895 110.000718,72.2777832 109.723218,72.5694445 C109.443983,72.8611057 109.175155,73.1425332 108.918468,73.413727 C108.660046,73.688332 106.849357,75.4587668 106.590935,75.6787919 C106.334248,75.8954058 106.00992,76.1751277 105.621419,76.5213688 C105.232919,76.8676099 104.946747,77.1456262 104.759435,77.3673569 C104.57906,77.5839708 104.254731,77.7750004 103.791653,77.9404457 C103.32684,78.1024797 103.005981,78.2593968 102.820403,78.402669 C101.604605,79.3834012 100.642027,80.1014678 99.9396046,80.555163 C99.2354481,81.0088582 98.7186041,81.2391171 98.385604,81.2391171 C97.9814945,81.2391171 97.6779787,81.0992562 97.4750568,80.8280624 C97.2669317,80.555163 97.1333847,80.2208612 97.0553378,79.8200403 C96.9859628,79.3475832 97.0952285,78.8205462 97.388338,78.240635 C97.6849162,77.6590182 98.0820883,77.0484058 98.5815885,76.4139147 C99.0793543,75.777718 99.6621045,75.1500494 100.329839,74.5326145 C100.992371,73.9151796 101.679183,73.2977447 102.378137,72.6786042 C103.229715,71.950304 105.711607,70.4288898 107.263873,69.2861236 C108.814405,68.1433574 110.293828,67.0705217 111.696938,66.0710276 C113.101782,65.0732392 114.173626,64.3534671 114.909001,63.9202393 C115.873314,63.3369168 116.685002,62.9190396 117.352737,62.6649021 C118.015268,62.4107645 118.367347,62.2487305 118.403768,62.1736832 C118.587612,61.9570693 118.49569,61.8103858 118.128003,61.7370441 C116.796002,62.3561846 115.266283,63.1731772 113.526704,64.1914331 C111.788859,65.2045721 110.000718,66.3353989 108.151874,67.5719743 C107.966295,67.6811341 107.787655,67.7971163 107.624623,67.9233323 C107.458123,68.0529595 107.282951,68.1706474 107.099108,68.2798071 C106.911795,68.4230793 104.133325,70.009307 102.431903,71.4249726 C100.733949,72.8423439 99.4036825,74.1147373 98.4428384,75.2404473 C98.2208383,75.5696322 97.9173226,75.9414576 97.5288224,76.3593348 C97.1420566,76.777212 96.7726346,77.2309073 96.418822,77.7221262 C96.0684781,78.2099338 95.7649623,78.7386764 95.504806,79.303237 C95.246384,79.8643864 95.1388527,80.4374751 95.1752746,81.0173863 C95.1752746,81.3090476 95.1544621,81.5717132 95.1180402,81.8105002 C95.0833527,82.0441703 95.0833527,82.2829573 95.1180402,82.518333 C95.1544621,82.7520031 95.246384,82.968617 95.3938059,83.1715859 C95.5446966,83.3711436 95.7805717,83.580935 96.1135718,83.7992545 C96.1898844,83.7992545 96.3841344,83.833367 96.6963221,83.9084143 C97.0102441,83.9800504 97.3623223,84.0243966 97.7490881,84.0431584 C98.1375883,84.0619202 98.5416978,84.0363359 98.9683542,83.9629942 C99.3932763,83.8896525 99.7713702,83.7259128 100.106105,83.4700697 C101.472793,82.7809987 103.033731,81.6894011 104.790653,80.2003938 C106.545842,78.7096808 108.35653,77.0739901 110.220984,75.2967328 C112.087172,73.5143586 113.944688,71.7268676 115.793533,69.9291428 C117.638909,68.1280068 116.242736,69.298063 117.793268,67.9523278 C118.570268,67.2632569 119.213722,66.6526445 119.734035,66.1256075 C120.252613,65.5968649 120.750379,65.1073517 121.230801,64.655362 C121.709488,64.1999612 122.200317,63.7275041 122.699817,63.2396964 C123.199317,62.7467719 123.820224,62.192445 124.557333,61.5750101 C124.592025,61.5391921 124.758521,61.390803 125.056834,61.1383711 C125.349943,60.8842335 125.674271,60.6198622 126.024615,60.3469628 C126.376694,60.0757691 126.699287,59.8199259 126.994131,59.5862558 C127.288975,59.3491744 127.45721,59.2314866 127.495366,59.2314866 C128.638319,58.4673683 130.105601,57.5292766 131.902415,56.424034 C133.690556,55.3153803 135.513385,54.2715401 137.35876,53.2891023" id="Fill-13"></path>
            </g>
        </g>
    </g>
</svg>